<svg width="24" height="24" viewBox="0 0 24 24" fill="none" xmlns="http://www.w3.org/2000/svg">
<path d="M11.9997 0.333252C5.55967 0.333252 0.333008 5.55992 0.333008 11.9999C0.333008 18.4399 5.55967 23.6666 11.9997 23.6666C18.4397 23.6666 23.6663 18.4399 23.6663 11.9999C23.6663 5.55992 18.4397 0.333252 11.9997 0.333252ZM20.703 8.63992L17.4597 9.98159C16.8647 8.39492 15.6163 7.13492 14.018 6.55159L15.3597 3.30825C17.8097 4.24159 19.758 6.18992 20.703 8.63992ZM11.9997 15.4999C10.063 15.4999 8.49967 13.9366 8.49967 11.9999C8.49967 10.0633 10.063 8.49992 11.9997 8.49992C13.9363 8.49992 15.4997 10.0633 15.4997 11.9999C15.4997 13.9366 13.9363 15.4999 11.9997 15.4999ZM8.65134 3.29659L10.0163 6.53992C8.40634 7.12325 7.13468 8.39492 6.53968 10.0049L3.29634 8.65159C4.24134 6.18992 6.18968 4.24159 8.65134 3.29659ZM3.29634 15.3483L6.53968 14.0066C7.13468 15.6166 8.39468 16.8766 10.0047 17.4599L8.63968 20.7033C6.18967 19.7583 4.24134 17.8099 3.29634 15.3483ZM15.3597 20.7033L14.018 17.4599C15.6163 16.8649 16.8763 15.6049 17.4597 13.9949L20.703 15.3599C19.758 17.8099 17.8097 19.7583 15.3597 20.7033Z" fill="#F47920"/>
</svg>
