<svg width="56" height="44" viewBox="0 0 56 44" fill="none" xmlns="http://www.w3.org/2000/svg">
<path d="M49.4363 23.3362C53.0557 23.3362 56.0001 20.3918 56.0001 16.7724C56.0001 13.1531 53.0557 10.2086 49.4363 10.2086H43.2008V8.56766C43.2008 5.85319 40.9924 3.6448 38.2779 3.6448H25.1502C22.4357 3.6448 20.2273 5.85319 20.2273 8.56766V10.1967C19.0357 10.1189 17.9258 9.61897 17.0737 8.76672L11.202 2.89503C9.96234 1.65537 8.31406 0.972656 6.56067 0.972656C4.80739 0.972656 3.15911 1.65537 1.91945 2.89514C-0.639817 5.45441 -0.639817 9.61842 1.91945 12.1778L9.71351 19.9719C11.883 22.1414 14.7675 23.3362 17.8358 23.3362H18.1528L28.3921 29.1533L18.7751 34.617C17.8844 33.7306 16.6575 33.182 15.3047 33.182C12.5902 33.182 10.3818 35.3904 10.3818 38.1048C10.3818 40.8193 12.5902 43.0277 15.3047 43.0277C17.4439 43.0277 19.2679 41.6557 19.9452 39.7458H43.483C44.1604 41.6556 45.9845 43.0277 48.1236 43.0277C50.8381 43.0277 53.0465 40.8193 53.0465 38.1048C53.0465 35.3904 50.8381 33.182 48.1236 33.182C46.7709 33.182 45.5438 33.7307 44.6531 34.617L35.0361 29.1533L45.2755 23.3361H49.4363V23.3362ZM15.3045 39.7458C14.3997 39.7458 13.6636 39.0097 13.6636 38.1048C13.6636 37.2 14.3997 36.4639 15.3045 36.4639C16.2094 36.4639 16.9455 37.2 16.9455 38.1048C16.9455 39.0097 16.2094 39.7458 15.3045 39.7458ZM48.1236 36.4639C49.0285 36.4639 49.7646 37.2 49.7646 38.1048C49.7646 39.0097 49.0285 39.7458 48.1236 39.7458C47.2188 39.7458 46.4827 39.0097 46.4827 38.1048C46.4827 37.2 47.2186 36.4639 48.1236 36.4639ZM36.6369 6.9267H38.2779C39.1828 6.9267 39.9188 7.6628 39.9188 8.56766V10.2086H36.6369V6.9267ZM30.0731 6.9267H33.355V10.2086H30.0731V6.9267ZM23.5093 8.56766C23.5093 7.6628 24.2454 6.9267 25.1503 6.9267H26.7912V10.2086H23.5093V8.56766ZM41.2602 36.4639H22.1679L31.7141 31.0405L41.2602 36.4639ZM31.7141 27.2661L24.7968 23.3362H38.6313L31.7141 27.2661ZM44.8085 20.0542H18.6194C18.619 20.0542 18.6187 20.0542 18.6184 20.0542H17.8359C15.6443 20.0542 13.5839 19.2008 12.0342 17.6511L4.24017 9.85719C2.9607 8.57761 2.9607 6.49555 4.24017 5.21586C4.86 4.59603 5.68425 4.25456 6.56078 4.25456C7.43753 4.25456 8.26156 4.59603 8.8815 5.21586L14.7532 11.0874C16.3028 12.6372 18.3632 13.4905 20.5548 13.4905H21.8684H41.5598H49.4363C51.2459 13.4905 52.7182 14.9628 52.7182 16.7724C52.7182 18.582 51.2459 20.0543 49.4363 20.0543H44.8101C44.8095 20.0542 44.809 20.0542 44.8085 20.0542Z" fill="#EE7203"/>
</svg>
