<svg width="37" height="38" viewBox="0 0 37 38" fill="none" xmlns="http://www.w3.org/2000/svg">
<g clip-path="url(#clip0)">
<path d="M32.6641 0.80957H4.33594C1.9451 0.80957 0 2.75467 0 5.14551V33.4736C0 35.8645 1.9451 37.8096 4.33594 37.8096H32.6641C35.0549 37.8096 37 35.8645 37 33.4736V5.14551C37 2.75467 35.0549 0.80957 32.6641 0.80957ZM34.1094 33.4736C34.1094 34.2706 33.461 34.9189 32.6641 34.9189H24.4258V23.1396H28.8911L29.6289 18.6592H24.4258V15.5518C24.4258 14.325 25.367 13.3838 26.5938 13.3838H29.5566V8.90332H26.5938C22.9138 8.90332 19.9469 11.8843 19.9469 15.5643V18.6592H15.6094V23.1396H19.9469V34.9189H4.33594C3.53899 34.9189 2.89062 34.2706 2.89062 33.4736V5.14551C2.89062 4.34856 3.53899 3.7002 4.33594 3.7002H32.6641C33.461 3.7002 34.1094 4.34856 34.1094 5.14551V33.4736Z" fill="white"/>
</g>
<defs>
<clipPath id="clip0">
<rect width="37" height="37" fill="white" transform="translate(0 0.80957)"/>
</clipPath>
</defs>
</svg>
