<svg width="52" height="56" viewBox="0 0 52 56" fill="none" xmlns="http://www.w3.org/2000/svg">
<path d="M37.1016 9.625C33.5972 9.625 30.244 10.9679 27.6406 13.2945V8.20312C27.6406 5.4892 29.7505 3.28125 32.3438 3.28125C33.2498 3.28125 33.9844 2.54669 33.9844 1.64062C33.9844 0.734562 33.2498 0 32.3438 0C27.9412 0 24.3594 3.67992 24.3594 8.20312V13.2945C21.756 10.9679 18.4028 9.625 14.8984 9.625C6.87731 9.625 0.351562 16.347 0.351562 24.6094C0.351562 26.9002 0.840797 29.0997 1.80559 31.1467L10.8425 50.3205C12.4936 53.8238 15.8708 56 19.6562 56C22.0117 56 24.2433 55.1333 26 53.5753C27.7567 55.1333 29.9883 56 32.3438 56C36.1292 56 39.5064 53.8238 41.1575 50.3205L50.1945 31.1466C51.1592 29.0994 51.6484 26.9 51.6484 24.6094C51.6484 16.347 45.1227 9.625 37.1016 9.625ZM47.2263 29.7477L38.1894 48.9215C37.0856 51.2637 34.8456 52.7188 32.3438 52.7188C30.3841 52.7188 28.5453 51.7927 27.2987 50.178C26.9881 49.7756 26.5084 49.5399 26 49.5399C25.4916 49.5399 25.012 49.7756 24.7013 50.178C23.4547 51.7927 21.6159 52.7188 19.6562 52.7188C17.1544 52.7188 14.9144 51.2637 13.8106 48.9216L4.7737 29.7477C4.01661 28.1416 3.63281 26.4129 3.63281 24.6094C3.63281 18.1562 8.68659 12.9062 14.8984 12.9062C18.8401 12.9062 22.5464 15.1365 24.571 18.7266C24.8618 19.2423 25.408 19.5614 26 19.5614C26.592 19.5614 27.1383 19.2423 27.429 18.7266C29.4536 15.1365 33.1599 12.9062 37.1016 12.9062C43.3134 12.9062 48.3672 18.1562 48.3672 24.6094C48.3672 26.4126 47.9834 28.1414 47.2263 29.7477Z" fill="#EE7203"/>
</svg>
