<svg width="56" height="56" viewBox="0 0 56 56" fill="none" xmlns="http://www.w3.org/2000/svg">
<path d="M18.6148 17.891C18.4537 16.9995 17.6007 16.4071 16.7086 16.5685C12.9405 17.2496 9.72741 20.5545 9.06843 24.4282C8.55415 27.4646 9.41022 29.7954 10.2189 31.216C10.5215 31.7472 11.0757 32.0451 11.6462 32.0451C11.9213 32.0451 12.2002 31.9758 12.4564 31.83C13.2438 31.3817 13.5188 30.38 13.0705 29.5925C12.5259 28.636 11.9508 27.0587 12.3034 24.9772C12.7315 22.4608 14.8761 20.234 17.2921 19.7973C18.1837 19.6362 18.7759 18.7828 18.6148 17.891Z" fill="#EE7203"/>
<path d="M37.0608 23.1738C35.1198 23.1738 33.4216 23.9895 32.1265 25.5383C30.8315 23.9895 29.1333 23.1738 27.1922 23.1738C23.5053 23.1738 20.6172 26.1228 20.6172 29.8876C20.6172 33.8963 23.941 36.5533 28.5414 40.2309C29.354 40.8804 30.1942 41.5521 31.0856 42.2838C31.3881 42.5322 31.7574 42.6564 32.1265 42.6564C32.4956 42.6564 32.8649 42.5322 33.1674 42.2838C34.0588 41.5521 34.8992 40.8804 35.7117 40.2309C40.312 36.5533 43.6358 33.8963 43.6358 29.8877C43.6359 26.1228 40.7478 23.1738 37.0608 23.1738ZM33.6629 37.6678C33.1635 38.067 32.6537 38.4745 32.1265 38.9003C31.5994 38.4746 31.0896 38.0671 30.5902 37.6679C26.5606 34.4466 23.8984 32.3186 23.8984 29.8876C23.8984 27.9308 25.3144 26.4551 27.1922 26.4551C29.613 26.4551 30.4967 29.1495 30.553 29.3296C30.7521 30.0368 31.39 30.5307 32.1251 30.5307C32.8616 30.5307 33.5007 30.0448 33.6983 29.3351C33.7344 29.2176 34.6097 26.4551 37.061 26.4551C38.9387 26.4551 40.3547 27.9307 40.3547 29.8876C40.3547 32.3185 37.6925 34.4465 33.6629 37.6678Z" fill="#EE7203"/>
<path d="M39.1016 9.625C35.5972 9.625 32.244 10.9679 29.6406 13.2945V8.20312C29.6406 5.4892 31.7505 3.28125 34.3438 3.28125C35.2498 3.28125 35.9844 2.54669 35.9844 1.64062C35.9844 0.734562 35.2498 0 34.3438 0C29.9412 0 26.3594 3.67992 26.3594 8.20312V13.2945C23.756 10.9679 20.4028 9.625 16.8984 9.625C8.87731 9.625 2.35156 16.347 2.35156 24.6094C2.35156 26.9002 2.8408 29.0997 3.80559 31.1467L12.8425 50.3205C14.4936 53.8238 17.8708 56 21.6562 56C24.0117 56 26.2433 55.1333 28 53.5753C29.7567 55.1333 31.9883 56 34.3438 56C38.1292 56 41.5064 53.8238 43.1575 50.3205L52.1945 31.1466C53.1592 29.0994 53.6484 26.9 53.6484 24.6094C53.6484 16.347 47.1227 9.625 39.1016 9.625ZM49.2263 29.7477L40.1894 48.9215C39.0856 51.2637 36.8456 52.7188 34.3438 52.7188C32.3841 52.7188 30.5453 51.7927 29.2987 50.178C28.9881 49.7756 28.5084 49.5399 28 49.5399C27.4916 49.5399 27.012 49.7756 26.7013 50.178C25.4547 51.7927 23.6159 52.7188 21.6562 52.7188C19.1544 52.7188 16.9144 51.2637 15.8106 48.9216L6.7737 29.7477C6.01661 28.1416 5.63281 26.4129 5.63281 24.6094C5.63281 18.1562 10.6866 12.9062 16.8984 12.9062C20.8401 12.9062 24.5464 15.1365 26.571 18.7266C26.8618 19.2423 27.408 19.5614 28 19.5614C28.592 19.5614 29.1383 19.2423 29.429 18.7266C31.4536 15.1365 35.1599 12.9062 39.1016 12.9062C45.3134 12.9062 50.3672 18.1562 50.3672 24.6094C50.3672 26.4126 49.9834 28.1414 49.2263 29.7477Z" fill="#EE7203"/>
</svg>
