<svg width="50" height="57" viewBox="0 0 50 57" fill="none" xmlns="http://www.w3.org/2000/svg">
<path d="M41.1847 17.3972C36.6606 17.3972 32.9799 21.0779 32.9799 25.602C32.9799 29.5644 35.8032 32.8794 39.5438 33.6418V42.0117C39.5438 48.3455 34.3908 53.4984 28.057 53.4984C21.7232 53.4984 16.5703 48.3455 16.5703 42.0117V40.055C19.3099 39.7508 21.9192 38.6947 24.1159 36.9477C27.6633 34.1263 29.698 29.9112 29.698 25.3833V18.8194C29.698 16.6801 28.326 14.8561 26.4161 14.1788V8.97362C26.4161 6.25913 24.2077 4.05073 21.4932 4.05073H19.8522V2.40976C19.8522 1.50351 19.1175 0.768799 18.2112 0.768799C17.305 0.768799 16.5703 1.50351 16.5703 2.40976V8.97362C16.5703 9.87987 17.305 10.6146 18.2112 10.6146C19.1175 10.6146 19.8522 9.87987 19.8522 8.97362V7.33265H21.4932C22.398 7.33265 23.1341 8.06879 23.1341 8.97362V14.1788C21.2242 14.8561 19.8522 16.6801 19.8522 18.8194V25.0321C19.8522 27.621 18.0965 29.8588 15.7682 30.2376C15.4954 30.282 15.2201 30.3049 14.9499 30.306C13.6334 30.309 12.3898 29.8019 11.4554 28.8713C10.521 27.9408 10.0064 26.702 10.0064 25.3833V18.8194C10.0064 16.6801 8.63447 14.8561 6.7245 14.1788V8.97362C6.7245 8.06879 7.46063 7.33265 8.36546 7.33265H10.0064V8.97362C10.0064 9.87987 10.7411 10.6146 11.6474 10.6146C12.5536 10.6146 13.2884 9.87987 13.2884 8.97362V2.40976C13.2884 1.50351 12.5536 0.768799 11.6474 0.768799C10.7411 0.768799 10.0064 1.50351 10.0064 2.40976V4.05073H8.36546C5.65098 4.05073 3.44257 6.25913 3.44257 8.97362V14.1788C1.5326 14.8561 0.160645 16.6801 0.160645 18.8194V24.8189C0.160645 24.9625 0.169724 25.5597 0.183509 25.6453C0.348699 28.7365 1.4348 31.7618 3.28482 34.2436C5.32662 36.9826 8.20771 38.9345 11.3975 39.74C11.4084 39.7428 11.4191 39.7454 11.4299 39.7479C12.0484 39.8908 12.6688 39.9937 13.2884 40.0598V42.0117C13.2884 50.1551 19.9136 56.7804 28.057 56.7804C36.2005 56.7804 42.8257 50.1551 42.8257 42.0117V33.6418C46.5662 32.8794 49.3895 29.5644 49.3895 25.602C49.3895 21.0779 45.7089 17.3972 41.1847 17.3972ZM23.1341 18.8194C23.1341 17.9146 23.8703 17.1784 24.7751 17.1784C25.6799 17.1784 26.4161 17.9146 26.4161 18.8194V23.7423H23.1341V18.8194ZM3.44257 18.8194C3.44257 17.9146 4.17871 17.1784 5.08353 17.1784C5.98836 17.1784 6.7245 17.9146 6.7245 18.8194V23.7423H3.44257V18.8194ZM12.185 36.5541C7.80589 35.441 4.46828 31.6051 3.64222 27.0242H6.88805C7.2053 28.5957 7.97721 30.0393 9.13945 31.1969C10.6887 32.7397 12.7434 33.5881 14.9289 33.5881C14.9403 33.5881 14.952 33.5881 14.9633 33.588C15.405 33.5862 15.8531 33.5488 16.295 33.4769C19.5575 32.9462 22.1473 30.3172 22.9063 27.0242H26.2999C25.8887 29.91 24.3988 32.5293 22.073 34.3791C19.3159 36.5718 15.7133 37.3641 12.185 36.5541ZM41.1847 30.5249C38.4702 30.5249 36.2618 28.3165 36.2618 25.602C36.2618 22.8876 38.4702 20.6792 41.1847 20.6792C43.8992 20.6792 46.1076 22.8876 46.1076 25.602C46.1076 28.3165 43.8992 30.5249 41.1847 30.5249Z" fill="#EE7203"/>
</svg>
