<svg width="24" height="24" viewBox="0 0 24 24" fill="none" xmlns="http://www.w3.org/2000/svg">
<path d="M20.6686 13.1433C20.7153 12.7699 20.7503 12.3966 20.7503 11.9999C20.7503 11.6033 20.7153 11.2299 20.6686 10.8566L23.1303 8.93159C23.352 8.75659 23.4103 8.44159 23.2703 8.18492L20.937 4.14825C20.832 3.96159 20.6336 3.85659 20.4236 3.85659C20.3536 3.85659 20.2836 3.86825 20.2253 3.89159L17.3203 5.05825C16.7136 4.59159 16.0603 4.20659 15.3486 3.91492L14.9053 0.823252C14.8703 0.543252 14.6253 0.333252 14.3336 0.333252H9.66697C9.3753 0.333252 9.1303 0.543252 9.0953 0.823252L8.65197 3.91492C7.9403 4.20659 7.28697 4.60325 6.6803 5.05825L3.7753 3.89159C3.7053 3.86825 3.6353 3.85659 3.5653 3.85659C3.36697 3.85659 3.16863 3.96159 3.06363 4.14825L0.730301 8.18492C0.578634 8.44159 0.648634 8.75659 0.870301 8.93159L3.33197 10.8566C3.2853 11.2299 3.2503 11.6149 3.2503 11.9999C3.2503 12.3849 3.2853 12.7699 3.33197 13.1433L0.870301 15.0683C0.648634 15.2433 0.590301 15.5583 0.730301 15.8149L3.06363 19.8516C3.16863 20.0383 3.36697 20.1433 3.57697 20.1433C3.64697 20.1433 3.71697 20.1316 3.7753 20.1083L6.6803 18.9416C7.28697 19.4083 7.9403 19.7933 8.65197 20.0849L9.0953 23.1766C9.1303 23.4566 9.3753 23.6666 9.66697 23.6666H14.3336C14.6253 23.6666 14.8703 23.4566 14.9053 23.1766L15.3486 20.0849C16.0603 19.7933 16.7136 19.3966 17.3203 18.9416L20.2253 20.1083C20.2953 20.1316 20.3653 20.1433 20.4353 20.1433C20.6336 20.1433 20.832 20.0383 20.937 19.8516L23.2703 15.8149C23.4103 15.5583 23.352 15.2433 23.1303 15.0683L20.6686 13.1433ZM18.3586 11.1483C18.4053 11.5099 18.417 11.7549 18.417 11.9999C18.417 12.2449 18.3936 12.5016 18.3586 12.8516L18.1953 14.1699L19.2336 14.9866L20.4936 15.9666L19.677 17.3783L18.1953 16.7833L16.982 16.2933L15.932 17.0866C15.4303 17.4599 14.952 17.7399 14.4736 17.9383L13.237 18.4399L13.0503 19.7583L12.817 21.3333H11.1836L10.962 19.7583L10.7753 18.4399L9.53863 17.9383C9.03697 17.7283 8.5703 17.4599 8.10363 17.1099L7.04197 16.2933L5.8053 16.7949L4.32363 17.3899L3.50697 15.9783L4.76697 14.9983L5.8053 14.1816L5.64197 12.8633C5.60697 12.5016 5.58363 12.2333 5.58363 11.9999C5.58363 11.7666 5.60697 11.4983 5.64197 11.1483L5.8053 9.82992L4.76697 9.01325L3.50697 8.03325L4.32363 6.62159L5.8053 7.21659L7.01863 7.70659L8.06863 6.91325C8.5703 6.53992 9.04863 6.25992 9.52697 6.06159L10.7636 5.55992L10.9503 4.24159L11.1836 2.66659H12.8053L13.027 4.24159L13.2136 5.55992L14.4503 6.06159C14.952 6.27159 15.4186 6.53992 15.8853 6.88992L16.947 7.70659L18.1836 7.20492L19.6653 6.60992L20.482 8.02159L19.2336 9.01325L18.1953 9.82992L18.3586 11.1483ZM12.0003 7.33325C9.42197 7.33325 7.33363 9.42159 7.33363 11.9999C7.33363 14.5783 9.42197 16.6666 12.0003 16.6666C14.5786 16.6666 16.667 14.5783 16.667 11.9999C16.667 9.42159 14.5786 7.33325 12.0003 7.33325ZM12.0003 14.3333C10.717 14.3333 9.66697 13.2833 9.66697 11.9999C9.66697 10.7166 10.717 9.66659 12.0003 9.66659C13.2836 9.66659 14.3336 10.7166 14.3336 11.9999C14.3336 13.2833 13.2836 14.3333 12.0003 14.3333Z" fill="#F47920"/>
</svg>
