<svg width="18" height="23" viewBox="0 0 18 23" fill="none" xmlns="http://www.w3.org/2000/svg">
<path d="M3.16634 20.1666C1.88301 20.1666 0.833008 21.2166 0.833008 22.4999H17.1663C17.1663 21.2166 16.1163 20.1666 14.833 20.1666H10.1663V17.8333H13.6663C14.9497 17.8333 15.9997 16.7833 15.9997 15.4999H6.66634C4.72968 15.4999 3.16634 13.9366 3.16634 11.9999C3.16634 10.7283 3.85468 9.61992 4.88134 9.00159C5.35968 9.68992 6.11801 10.1683 7.01634 10.2383C7.83301 10.3083 8.60301 10.0166 9.17467 9.51492L9.86301 11.3933L10.9597 10.9966L11.3563 12.0933L13.5497 11.2999L13.153 10.2033L14.2497 9.80658L11.053 1.03325L9.95634 1.42992L9.55968 0.333252L7.36634 1.12659L7.76301 2.22325L6.66634 2.63159L7.31968 4.43992C5.95468 4.39325 4.76468 5.31492 4.42634 6.60992C2.31467 7.49659 0.833008 9.57325 0.833008 11.9999C0.833008 15.2199 3.44634 17.8333 6.66634 17.8333V20.1666H3.16634ZM10.003 3.27325L11.998 8.75659L10.9013 9.15325L8.90634 3.66992L10.003 3.27325ZM7.24968 6.16658C7.89134 6.16658 8.41634 6.69159 8.41634 7.33325C8.41634 7.97492 7.89134 8.49992 7.24968 8.49992C6.60801 8.49992 6.08301 7.97492 6.08301 7.33325C6.08301 6.69159 6.60801 6.16658 7.24968 6.16658Z" fill="#F47920"/>
</svg>
