<svg width="24" height="22" viewBox="0 0 24 22" fill="none" xmlns="http://www.w3.org/2000/svg">
<path d="M21.333 5.16667H16.6663V2.83333L14.333 0.5H9.66634L7.33301 2.83333V5.16667H2.66634C1.38301 5.16667 0.333008 6.21667 0.333008 7.5V13.3333C0.333008 14.2083 0.799674 14.9433 1.49967 15.3517V19.1667C1.49967 20.4617 2.53801 21.5 3.83301 21.5H20.1663C21.4613 21.5 22.4997 20.4617 22.4997 19.1667V15.34C23.188 14.9317 23.6663 14.185 23.6663 13.3333V7.5C23.6663 6.21667 22.6163 5.16667 21.333 5.16667ZM9.66634 2.83333H14.333V5.16667H9.66634V2.83333ZM2.66634 7.5H21.333V13.3333H15.4997V9.83333H8.49967V13.3333H2.66634V7.5ZM13.1663 14.5H10.833V12.1667H13.1663V14.5ZM20.1663 19.1667H3.83301V15.6667H8.49967V16.8333H15.4997V15.6667H20.1663V19.1667Z" fill="#F47920"/>
</svg>
