<svg width="54" height="36" viewBox="0 0 54 36" fill="none" xmlns="http://www.w3.org/2000/svg">
<path d="M52.439 5.63278C51.8284 3.41559 50.0292 1.66941 47.7447 1.07681C43.604 0 27.0003 0 27.0003 0C27.0003 0 10.3967 0 6.25593 1.07681C3.9715 1.6695 2.1723 3.41559 1.56165 5.63278C0.452148 9.65156 0.452148 18.0364 0.452148 18.0364C0.452148 18.0364 0.452148 26.4212 1.56165 30.44C2.1723 32.6572 3.9715 34.3306 6.25593 34.9232C10.3967 36 27.0003 36 27.0003 36C27.0003 36 43.604 36 47.7447 34.9232C50.0292 34.3306 51.8284 32.6572 52.439 30.44C53.5485 26.4212 53.5485 18.0364 53.5485 18.0364C53.5485 18.0364 53.5485 9.65156 52.439 5.63278ZM21.57 25.6492V10.4236L35.4474 18.0366L21.57 25.6492Z" fill="#FF0000"/>
</svg>
