<svg width="54" height="36" viewBox="0 0 54 36" fill="none" xmlns="http://www.w3.org/2000/svg">
<path d="M52.4387 5.63278C51.828 3.41559 50.0288 1.66941 47.7444 1.07681C43.6037 0 27 0 27 0C27 0 10.3964 0 6.25559 1.07681C3.97116 1.6695 2.17197 3.41559 1.56131 5.63278C0.451813 9.65156 0.451813 18.0364 0.451813 18.0364C0.451813 18.0364 0.451813 26.4212 1.56131 30.44C2.17197 32.6572 3.97116 34.3306 6.25559 34.9232C10.3964 36 27 36 27 36C27 36 43.6036 36 47.7444 34.9232C50.0288 34.3306 51.828 32.6572 52.4387 30.44C53.5482 26.4212 53.5482 18.0364 53.5482 18.0364C53.5482 18.0364 53.5482 9.65156 52.4387 5.63278V5.63278ZM21.5697 25.6492V10.4236L35.4471 18.0366L21.5697 25.6492V25.6492Z" fill="white"/>
</svg>
