<svg width="39" height="39" viewBox="0 0 39 39" fill="none" xmlns="http://www.w3.org/2000/svg">
<path d="M19.7851 9.92727C14.4419 9.92727 10.1321 14.1975 10.1321 19.4915C10.1321 24.7855 14.4419 29.0557 19.7851 29.0557C25.1282 29.0557 29.438 24.7855 29.438 19.4915C29.438 14.1975 25.1282 9.92727 19.7851 9.92727ZM19.7851 25.7095C16.3322 25.7095 13.5094 22.9209 13.5094 19.4915C13.5094 16.062 16.3238 13.2735 19.7851 13.2735C23.2464 13.2735 26.0607 16.062 26.0607 19.4915C26.0607 22.9209 23.2379 25.7095 19.7851 25.7095ZM32.0844 9.53604C32.0844 10.7763 31.0762 11.7669 29.8329 11.7669C28.5811 11.7669 27.5813 10.768 27.5813 9.53604C27.5813 8.3041 28.5895 7.30522 29.8329 7.30522C31.0762 7.30522 32.0844 8.3041 32.0844 9.53604ZM38.4777 11.8002C38.3348 8.81186 37.6459 6.16484 35.4364 3.98397C33.2353 1.8031 30.5638 1.12053 27.5477 0.970702C24.4393 0.795899 15.1224 0.795899 12.014 0.970702C9.00638 1.11221 6.33481 1.79477 4.12531 3.97565C1.9158 6.15652 1.23531 8.80353 1.08409 11.7918C0.907662 14.8717 0.907662 24.1029 1.08409 27.1828C1.22691 30.1711 1.9158 32.8181 4.12531 34.999C6.33481 37.1799 8.99798 37.8624 12.014 38.0123C15.1224 38.1871 24.4393 38.1871 27.5477 38.0123C30.5638 37.8708 33.2353 37.1882 35.4364 34.999C37.6375 32.8181 38.3264 30.1711 38.4777 27.1828C38.6541 24.1029 38.6541 14.88 38.4777 11.8002ZM34.4619 30.4874C33.8066 32.1189 32.538 33.3758 30.883 34.0334C28.4047 35.0073 22.5239 34.7826 19.7851 34.7826C17.0463 34.7826 11.1571 34.999 8.68714 34.0334C7.04051 33.3841 5.77193 32.1272 5.10824 30.4874C4.12531 28.0318 4.35214 22.2051 4.35214 19.4915C4.35214 16.7779 4.13371 10.9428 5.10824 8.49555C5.76353 6.86406 7.03211 5.60714 8.68714 4.94955C11.1655 3.97565 17.0463 4.20039 19.7851 4.20039C22.5239 4.20039 28.4131 3.98397 30.883 4.94955C32.5296 5.59882 33.7982 6.85573 34.4619 8.49555C35.4448 10.9511 35.218 16.7779 35.218 19.4915C35.218 22.2051 35.4448 28.0402 34.4619 30.4874Z" fill="white"/>
</svg>
